<svg width="137" height="17" viewBox="0 0 137 17" fill="none" xmlns="http://www.w3.org/2000/svg">
<path d="M15 17V12.944H5.232V10.928H14.64V6.896H5.232V4.976H15V0.92H0.72V17H15ZM28.2585 17L34.7145 0.92H29.2905L25.2345 12.44H24.9225L20.7705 0.92H15.3225L21.7785 17H28.2585ZM49.4766 17V12.944H39.7086V10.928H49.1166V6.896H39.7086V4.976H49.4766V0.92H35.1966V17H49.4766ZM55.2711 17V10.712L55.0791 7.64H55.3911L57.4311 10.808L62.1831 17H66.9831V0.92H62.4711V7.136L62.6871 10.64H62.3751L60.0231 6.944L55.5591 0.92H50.7591V17H55.2711ZM78.2709 17V4.976H83.9349V0.92H68.0709V4.976H73.7589V17H78.2709ZM98.8247 17V12.944H89.5367V0.92H85.0247V17H98.8247ZM104.129 17L105.377 14.024H113.009L114.233 17H119.417L112.457 0.92H106.001L99.0647 17H104.129ZM108.017 7.712L109.049 5H109.361L110.417 7.712L111.353 9.968H107.081L108.017 7.712ZM130.676 17C134.516 17 136.076 15.248 136.076 12.536C136.076 10.304 134.54 8.816 131.324 8.696V8.456C134.252 8.336 135.332 6.872 135.332 4.808C135.332 2.288 133.604 0.92 130.124 0.92H119.9V17H130.676ZM124.388 4.976H129.524C130.46 4.976 130.82 5.264 130.82 6.008C130.82 6.752 130.556 7.016 129.644 7.016H124.388V4.976ZM124.388 10.712H130.1C131.204 10.712 131.516 10.928 131.516 11.816C131.516 12.728 131.18 12.944 130.1 12.944H124.388V10.712Z" fill="black"/>
</svg>
